<svg width="24" height="24" viewBox="0 0 24 24" fill="none" xmlns="http://www.w3.org/2000/svg">
<path d="M2.99625 13.0017L4.29195 11.706C4.74429 11.2537 5.3578 10.9996 5.9975 10.9996C6.6372 10.9996 7.25071 11.2537 7.70304 11.706L12 16.003" stroke="#323232" stroke-width="1.5" stroke-linecap="round" stroke-linejoin="round"/>
<path d="M7.00225 21.0038L13.2987 14.7073C14.2407 13.7654 15.7678 13.7654 16.7098 14.7073L20.6506 18.6481" stroke="#323232" stroke-width="1.5" stroke-linecap="round" stroke-linejoin="round"/>
<path fill-rule="evenodd" clip-rule="evenodd" d="M16.279 9.39428H14.2329V7.34815C14.2327 7.13828 14.3161 6.93698 14.4647 6.78876L17.6296 3.62382C17.7779 3.47527 17.9792 3.39178 18.189 3.39178C18.3989 3.39178 18.6002 3.47527 18.7484 3.62382L20.0033 4.87872C20.1519 5.02698 20.2354 5.22824 20.2354 5.43812C20.2354 5.648 20.1519 5.84926 20.0033 5.99752L16.8384 9.16246C16.69 9.31074 16.4888 9.39411 16.279 9.39428V9.39428Z" stroke="#323232" stroke-width="1.5" stroke-linecap="round" stroke-linejoin="round"/>
<path d="M21.0038 9.99913V17.002C21.0038 19.2121 19.2121 21.0037 17.0021 21.0037H6.99792C4.78786 21.0037 2.99625 19.2121 2.99625 17.002V6.99788C2.99625 4.78782 4.78786 2.99622 6.99792 2.99622H13.0004" stroke="#323232" stroke-width="1.5" stroke-linecap="round" stroke-linejoin="round"/>
</svg>
