<svg width="24" height="24" viewBox="0 0 24 24" fill="none" xmlns="http://www.w3.org/2000/svg">
<path d="M13.2505 12H15.7516C16.0278 12 16.2518 12.224 16.2518 12.5002V14.501C16.2518 14.7773 16.0278 15.0013 15.7516 15.0013H13.7507C13.4745 15.0013 13.2505 14.7773 13.2505 14.501V12" stroke="#323232" stroke-width="1.5" stroke-linecap="round" stroke-linejoin="round"/>
<path d="M13.2505 12C13.2505 9.99914 13.6257 9.666 14.7511 8.99872" stroke="#323232" stroke-width="1.5" stroke-linecap="round" stroke-linejoin="round"/>
<path d="M7.74823 12H10.2493C10.5255 12 10.7495 12.224 10.7495 12.5002V14.501C10.7495 14.7773 10.5255 15.0013 10.2493 15.0013H8.24844C7.97218 15.0013 7.74823 14.7773 7.74823 14.501V12" stroke="#323232" stroke-width="1.5" stroke-linecap="round" stroke-linejoin="round"/>
<path d="M7.74823 12C7.74823 9.99914 8.12339 9.666 9.24885 8.99872" stroke="#323232" stroke-width="1.5" stroke-linecap="round" stroke-linejoin="round"/>
<circle cx="12" cy="12" r="9.00375" stroke="#323232" stroke-width="1.5" stroke-linecap="round" stroke-linejoin="round"/>
</svg>
