<svg width="24" height="24" viewBox="0 0 24 24" fill="none" xmlns="http://www.w3.org/2000/svg">
<path d="M20.4697 7.46967C20.7626 7.17678 21.2374 7.17678 21.5303 7.46967C21.7966 7.73594 21.8208 8.1526 21.6029 8.44621L21.5303 8.53033L15.9445 14.1161C14.9153 15.1453 13.2733 15.1882 12.1931 14.2448L12.0555 14.1161L9.88388 11.9445C9.42827 11.4889 8.70845 11.4586 8.21762 11.8534L8.11612 11.9445L3.53033 16.5303C3.23744 16.8232 2.76256 16.8232 2.46967 16.5303C2.2034 16.2641 2.1792 15.8474 2.39705 15.5538L2.46967 15.4697L7.05546 10.8839C8.08465 9.85469 9.72666 9.81181 10.8069 10.7552L10.9445 10.8839L13.1161 13.0555C13.5717 13.5111 14.2915 13.5414 14.7824 13.1466L14.8839 13.0555L20.4697 7.46967Z" fill="#323232"/>
<path d="M13.9996 7.19995C14.3732 7.19971 14.6873 7.45572 14.7754 7.80264L14.7934 7.89921L14.8001 8.00099C14.7995 8.44262 14.4412 8.80024 13.9996 8.79995C13.5579 8.79966 13.2001 8.44158 13.2001 7.99995C13.2001 7.55833 13.5579 7.20024 13.9996 7.19995Z" fill="#323232"/>
<path d="M16 2.25C19.1756 2.25 21.75 4.82436 21.75 8V16C21.75 19.1756 19.1756 21.75 16 21.75H8C4.82436 21.75 2.25 19.1756 2.25 16V8C2.25 4.82436 4.82436 2.25 8 2.25H16ZM8 3.75C5.65279 3.75 3.75 5.65279 3.75 8V16C3.75 18.3472 5.65279 20.25 8 20.25H16C18.3472 20.25 20.25 18.3472 20.25 16V8C20.25 5.65279 18.3472 3.75 16 3.75H8Z" fill="#323232"/>
</svg>
