<svg width="24" height="24" viewBox="0 0 24 24" fill="none" xmlns="http://www.w3.org/2000/svg">
<path d="M14.4902 2.25C15.4848 2.25 16.4393 2.64537 17.1426 3.34863L19.6514 5.85742C20.3546 6.56068 20.75 7.51521 20.75 8.50977V18C20.75 20.0711 19.0711 21.75 17 21.75H7C4.92893 21.75 3.25 20.0711 3.25 18V6C3.25 3.92893 4.92893 2.25 7 2.25H14.4902ZM7 3.75C5.75736 3.75 4.75 4.75736 4.75 6V18C4.75 19.2426 5.75736 20.25 7 20.25H17C18.2426 20.25 19.25 19.2426 19.25 18V8.50977C19.25 7.91304 19.0128 7.33993 18.5908 6.91797L16.082 4.40918C15.6601 3.98722 15.087 3.75 14.4902 3.75H7Z" fill="#323232"/>
<path d="M13.5 8.25C14.6909 8.25 15.6656 9.17516 15.7448 10.346L15.75 10.5V14C15.75 16.0711 14.0711 17.75 12 17.75C9.99574 17.75 8.35873 16.1776 8.2552 14.1992L8.25 14V11C8.25 10.5858 8.58579 10.25 9 10.25C9.3797 10.25 9.69349 10.5322 9.74315 10.8982L9.75 11V14C9.75 15.2426 10.7574 16.25 12 16.25C13.1909 16.25 14.1656 15.3248 14.2448 14.154L14.25 14V10.5C14.25 10.0858 13.9142 9.75 13.5 9.75C13.1203 9.75 12.8065 10.0322 12.7568 10.3982L12.75 10.5V14C12.75 14.4142 12.4142 14.75 12 14.75C11.6203 14.75 11.3065 14.4678 11.2568 14.1018L11.25 14V10.5C11.25 9.25736 12.2574 8.25 13.5 8.25Z" fill="#323232"/>
</svg>
