<svg width="20" height="20" viewBox="0 0 20 20" fill="none" xmlns="http://www.w3.org/2000/svg">
<path d="M11.7694 8.23312C12.7452 9.20896 12.7452 10.7931 11.7694 11.7706C10.7935 12.7465 9.20937 12.7465 8.23187 11.7706C7.25604 10.7948 7.25604 9.21062 8.23187 8.23312C9.20937 7.25563 10.7927 7.25563 11.7694 8.23312" stroke="#323232" stroke-width="1.25" stroke-linecap="round" stroke-linejoin="round"/>
<path fill-rule="evenodd" clip-rule="evenodd" d="M2.5 9.99984C2.5 9.45067 2.62667 8.90734 2.87167 8.4065V8.4065C4.13417 5.82567 6.92417 4.1665 10 4.1665C13.0758 4.1665 15.8658 5.82567 17.1283 8.4065V8.4065C17.3733 8.90734 17.5 9.45067 17.5 9.99984C17.5 10.549 17.3733 11.0923 17.1283 11.5932V11.5932C15.8658 14.174 13.0758 15.8332 10 15.8332C6.92417 15.8332 4.13417 14.174 2.87167 11.5932V11.5932C2.62667 11.0923 2.5 10.549 2.5 9.99984Z" stroke="#323232" stroke-width="1.25" stroke-linecap="round" stroke-linejoin="round"/>
</svg>
