<svg width="20" height="20" viewBox="0 0 20 20" fill="none" xmlns="http://www.w3.org/2000/svg">
<path fill-rule="evenodd" clip-rule="evenodd" d="M10.6665 2.49658C11.0183 2.49658 11.3321 2.71744 11.451 3.04848L11.8745 4.22814C11.9417 4.41364 12.0722 4.56951 12.243 4.66832L13.4994 5.39362C13.67 5.49206 13.8699 5.52691 14.0638 5.492L15.2976 5.2694C15.6441 5.2064 15.9928 5.3679 16.1688 5.6729L16.8358 6.82338C17.0123 7.12756 16.9789 7.50978 16.7524 7.77878L15.9429 8.73585C15.8154 8.88634 15.7454 9.07716 15.7453 9.2744V10.725C15.7454 10.9222 15.8154 11.1131 15.9429 11.2636L16.7524 12.2206C16.9789 12.4896 17.0123 12.8719 16.8358 13.176L16.1688 14.3265C15.9929 14.6312 15.6446 14.7926 15.2984 14.73L14.0646 14.5074C13.8708 14.4725 13.6708 14.5074 13.5002 14.6058L12.2438 15.3311C12.0731 15.4299 11.9426 15.5858 11.8754 15.7713L11.4518 16.9509C11.3329 17.2823 11.0186 17.5031 10.6665 17.5028H9.33263C8.98089 17.5028 8.66702 17.282 8.54813 16.9509L8.12462 15.7713C8.05742 15.586 7.9273 15.4302 7.75697 15.3311L6.49978 14.6058C6.32918 14.5074 6.12923 14.4725 5.93538 14.5074L4.70153 14.73C4.35506 14.793 4.00637 14.6315 3.83034 14.3265L3.16339 13.176C2.98689 12.8719 3.02024 12.4896 3.24676 12.2206L4.05626 11.2636C4.18376 11.1131 4.25377 10.9222 4.25385 10.725V9.2744C4.25377 9.07716 4.18376 8.88634 4.05626 8.73585L3.2551 7.77878C3.02858 7.50978 2.99523 7.12756 3.17173 6.82338L3.83867 5.6729C4.01459 5.36823 4.36284 5.20678 4.70904 5.2694L5.94288 5.492C6.13673 5.52691 6.33668 5.49206 6.50728 5.39362L7.76447 4.66832C7.93481 4.56919 8.06492 4.4134 8.13213 4.22814L8.55564 3.04848C8.67358 2.72001 8.98364 2.49978 9.33263 2.49658H10.6665Z" stroke="#323232" stroke-width="1.25" stroke-linecap="round" stroke-linejoin="round"/>
<circle cx="9.99965" cy="9.99965" r="2.29262" stroke="#323232" stroke-width="1.25" stroke-linecap="round" stroke-linejoin="round"/>
</svg>
